<svg width="24" height="20" viewBox="0 0 24 20" fill="none" xmlns="http://www.w3.org/2000/svg">
<path d="M7.49999 20C8.42047 20 9.16666 19.2538 9.16666 18.3333C9.16666 17.4129 8.42047 16.6667 7.49999 16.6667C6.57952 16.6667 5.83333 17.4129 5.83333 18.3333C5.83333 19.2538 6.57952 20 7.49999 20Z" fill="#FFD6BF"/>
<path d="M19.1667 20C20.0871 20 20.8333 19.2538 20.8333 18.3333C20.8333 17.4129 20.0871 16.6667 19.1667 16.6667C18.2462 16.6667 17.5 17.4129 17.5 18.3333C17.5 19.2538 18.2462 20 19.1667 20Z" fill="#FFD6BF"/>
<path d="M22.125 2.95729C22.0079 2.81409 21.8604 2.69875 21.6932 2.61965C21.526 2.54056 21.3433 2.49968 21.1583 2.5H5.30677L4.9875 0.688542C4.95346 0.495588 4.85251 0.320799 4.7024 0.194879C4.55228 0.0689585 4.3626 -4.11674e-05 4.16667 1.84272e-08H0.833333C0.61232 1.84272e-08 0.400358 0.0877976 0.244078 0.244078C0.0877973 0.400358 0 0.61232 0 0.833333C0 1.05435 0.0877973 1.26631 0.244078 1.42259C0.400358 1.57887 0.61232 1.66667 0.833333 1.66667H3.46771L5.84583 15.1448C5.87988 15.3377 5.98082 15.5125 6.13094 15.6385C6.28105 15.7644 6.47073 15.8334 6.66667 15.8333H20C20.221 15.8333 20.433 15.7455 20.5893 15.5893C20.7455 15.433 20.8333 15.221 20.8333 15C20.8333 14.779 20.7455 14.567 20.5893 14.4107C20.433 14.2545 20.221 14.1667 20 14.1667H7.36562L7.07187 12.5H19.6583C19.9473 12.4996 20.2273 12.3994 20.4509 12.2163C20.6745 12.0333 20.828 11.7786 20.8854 11.4953L22.3854 3.99531C22.4216 3.8138 22.4169 3.62653 22.3719 3.44702C22.3269 3.26751 22.2425 3.10024 22.125 2.95729Z" fill="#FFD6BF"/>
<line y1="-0.5" x2="27.0185" y2="-0.5" transform="matrix(0.777245 -0.629198 0.692956 0.72098 2 18)" stroke="#FF6B19"/>
<line y1="-0.5" x2="26.7882" y2="-0.5" transform="matrix(0.772834 0.634608 -0.698073 0.716027 2 1)" stroke="#FF6B19"/>
</svg>
