<svg width="51" height="41" viewBox="0 0 51 41" fill="none" xmlns="http://www.w3.org/2000/svg">
<g opacity="0.8">
<path opacity="0.8" d="M9 34.5H42C42.7956 34.5 43.5587 34.8161 44.1213 35.3787C44.6839 35.9413 45 36.7044 45 37.5C45 38.2956 44.6839 39.0587 44.1213 39.6213C43.5587 40.1839 42.7956 40.5 42 40.5H9C8.20435 40.5 7.44129 40.1839 6.87868 39.6213C6.31607 39.0587 6 38.2956 6 37.5C6 36.7044 6.31607 35.9413 6.87868 35.3787C7.44129 34.8161 8.20435 34.5 9 34.5Z" fill="#D69D9D"/>
<path opacity="0.8" d="M44.934 8.13C48.51 9.273 51 11.88 51 15C51 19.284 46.35 22.5 40.821 22.5C40.677 22.5 40.533 22.5 40.389 22.494C36.738 28.134 31.359 31.5 25.5 31.5C14.622 31.5 6 20.004 6 6C6 5.60218 6.15804 5.22064 6.43934 4.93934C6.72064 4.65804 7.10218 4.5 7.5 4.5H43.5C43.8978 4.5 44.2794 4.65804 44.5607 4.93934C44.842 5.22064 45 5.60218 45 6C45 6.714 44.979 7.422 44.934 8.13Z" fill="#D0A0A0"/>
</g>
<path fill-rule="evenodd" clip-rule="evenodd" d="M37.5 0H1.5C1.10218 0 0.720645 0.158036 0.43934 0.43934C0.158036 0.720645 0 1.10218 0 1.5C0 15.504 8.622 27 19.5 27C30.378 27 39 15.504 39 1.5C39 1.10218 38.842 0.720645 38.5607 0.43934C38.2794 0.158036 37.8978 0 37.5 0ZM35.964 3C35.394 14.796 28.14 24 19.5 24C10.86 24 3.606 14.796 3.036 3H35.964Z" fill="#FD7800"/>
<path d="M34.086 17.487L34.914 14.604C35.823 14.862 36.804 15 37.824 15C41.88 15 45 12.84 45 10.5C45 8.16 41.88 6 37.821 6V3C43.35 3 48 6.216 48 10.5C48 14.784 43.35 18 37.821 18C36.528 18 35.265 17.826 34.086 17.487V17.487Z" fill="#FD7800"/>
<path d="M3 30.75H36C36.5967 30.75 37.169 30.9871 37.591 31.409C38.0129 31.831 38.25 32.4033 38.25 33C38.25 33.5967 38.0129 34.169 37.591 34.591C37.169 35.0129 36.5967 35.25 36 35.25H3C2.40326 35.25 1.83097 35.0129 1.40901 34.591C0.987053 34.169 0.75 33.5967 0.75 33C0.75 32.4033 0.987053 31.831 1.40901 31.409C1.83097 30.9871 2.40326 30.75 3 30.75V30.75Z" fill="#FD7800"/>
</svg>
