<svg width="26" height="20" viewBox="0 0 26 20" fill="none" xmlns="http://www.w3.org/2000/svg">
<g opacity="0.8">
<path opacity="0.8" d="M4.44444 17.037H20.7407C21.1337 17.037 21.5105 17.1931 21.7883 17.4709C22.0661 17.7487 22.2222 18.1256 22.2222 18.5185C22.2222 18.9114 22.0661 19.2882 21.7883 19.566C21.5105 19.8439 21.1337 20 20.7407 20H4.44444C4.05153 20 3.67471 19.8439 3.39688 19.566C3.11904 19.2882 2.96296 18.9114 2.96296 18.5185C2.96296 18.1256 3.11904 17.7487 3.39688 17.4709C3.67471 17.1931 4.05153 17.037 4.44444 17.037Z" fill="#D69D9D"/>
<path opacity="0.8" d="M22.1896 4.01476C23.9556 4.57921 25.1852 5.86661 25.1852 7.40735C25.1852 9.52291 22.8889 11.1111 20.1585 11.1111C20.0874 11.1111 20.0163 11.1111 19.9452 11.1081C18.1422 13.8933 15.4859 15.5555 12.5926 15.5555C7.22074 15.5555 2.96296 9.87846 2.96296 2.96291C2.96296 2.76645 3.041 2.57804 3.17992 2.43913C3.31883 2.30021 3.50724 2.22217 3.7037 2.22217H21.4815C21.6779 2.22217 21.8663 2.30021 22.0053 2.43913C22.1442 2.57804 22.2222 2.76645 22.2222 2.96291C22.2222 3.3155 22.2118 3.66513 22.1896 4.01476Z" fill="#D0A0A0"/>
</g>
<path fill-rule="evenodd" clip-rule="evenodd" d="M18.5185 0H0.740741C0.544284 0 0.355874 0.0780422 0.216958 0.216958C0.0780423 0.355874 0 0.544284 0 0.740741C0 7.6563 4.25778 13.3333 9.62963 13.3333C15.0015 13.3333 19.2593 7.6563 19.2593 0.740741C19.2593 0.544284 19.1812 0.355874 19.0423 0.216958C18.9034 0.0780422 18.715 0 18.5185 0ZM17.76 1.48148C17.4785 7.30667 13.8963 11.8519 9.62963 11.8519C5.36296 11.8519 1.78074 7.30667 1.49926 1.48148H17.76Z" fill="#FD7800"/>
<path d="M16.8326 8.63552L17.2415 7.21182C17.6904 7.33922 18.1748 7.40737 18.6785 7.40737C20.6815 7.40737 22.2222 6.3407 22.2222 5.18515C22.2222 4.02959 20.6815 2.96293 18.677 2.96293V1.48145C21.4074 1.48145 23.7037 3.06959 23.7037 5.18515C23.7037 7.3007 21.4074 8.88885 18.677 8.88885C18.0385 8.88885 17.4148 8.80293 16.8326 8.63552V8.63552Z" fill="#FD7800"/>
<path d="M1.48148 15.1852H17.7778C18.0725 15.1852 18.3551 15.3022 18.5634 15.5106C18.7718 15.719 18.8889 16.0016 18.8889 16.2963C18.8889 16.591 18.7718 16.8736 18.5634 17.082C18.3551 17.2903 18.0725 17.4074 17.7778 17.4074H1.48148C1.1868 17.4074 0.904179 17.2903 0.695806 17.082C0.487432 16.8736 0.370369 16.591 0.370369 16.2963C0.370369 16.0016 0.487432 15.719 0.695806 15.5106C0.904179 15.3022 1.1868 15.1852 1.48148 15.1852V15.1852Z" fill="#FD7800"/>
</svg>
